<svg xmlns="http://www.w3.org/2000/svg" xmlns:xlink="http://www.w3.org/1999/xlink" viewBox="0 0 1366 762.53"><defs><style>.cls-1{fill:url(#Dégradé_sans_nom_165);}</style><linearGradient id="Dégradé_sans_nom_165" x1="1310.64" y1="-107.33" x2="244.82" y2="676.11" gradientUnits="userSpaceOnUse"><stop offset="0" stop-color="#4500e9"/><stop offset="0.34" stop-color="#7a49f1"/><stop offset="0.99" stop-color="#9e97b5"/></linearGradient></defs><title>bg</title><g id="Calque_2" data-name="Calque 2"><g id="Calque_1-2" data-name="Calque 1"><path class="cls-1" d="M1008,145C672,145,683,0,683,0H0V698.38A401.7,401.7,0,0,1,43.79,696c68.05,0,131.11,17,182.92,45.92C278.53,713,341.59,696,409.63,696c82.51,0,157.69,25,214.38,65.93C680.7,721,755.89,696,838.39,696c82.89,0,158.42,25.2,215.2,66.53C1110.38,721.2,1185.9,696,1268.79,696A393.41,393.41,0,0,1,1366,708V290S1344,145,1008,145Z"/></g></g></svg>